<svg xmlns="http://www.w3.org/2000/svg" width="118.671" height="113.746" viewBox="0 0 118.671 113.746">
  <g id="Group_1538" data-name="Group 1538" transform="translate(-127.804 -299.32)">
    <path id="Path_32736" data-name="Path 32736" d="M105.316,3.531a58.682,58.682,0,0,1,33.639,31.726c6.254,14.424,7.094,33.387-.892,47.318-2.893,5.047-8.355,10.833-14.737,8.246-5.614-2.276-8.851-9.111-11.259-14.228-.513-1.091-.933-1.411-1.287-1.336s-.6.379-.6,1.7c-.006,18.04-4.616,26.859-8.616,31.081-4.422,4.669-9.31,7.037-14.527,7.037-.215,0-.427-.023-.64-.032-11.632-.463-18.867-11.276-19.457-22.11-.778-14.275,10.277-24.5,21.12-31.884,8.736-5.951,17.39-13.34,21.875-23.142a32.98,32.98,0,0,0-4.621-34.376" transform="translate(102.626 297.991)" fill="#557aa6"/>
    <path id="Path_32737" data-name="Path 32737" d="M38.533,111.544A58.683,58.683,0,0,1,4.894,79.817C-1.36,65.393-2.2,46.43,5.785,32.5c2.892-5.047,8.355-10.833,14.737-8.246,5.614,2.276,8.851,9.111,11.259,14.228.513,1.091.933,1.411,1.287,1.336s.6-.379.6-1.7c.006-18.04,4.616-26.859,8.616-31.082C46.705,2.368,51.593,0,56.811,0c.215,0,.427.023.64.032C69.082.5,76.317,11.307,76.907,22.141c.778,14.275-10.277,24.5-21.12,31.884-8.736,5.951-17.39,13.34-21.875,23.142a32.98,32.98,0,0,0,4.621,34.376" transform="translate(127.805 299.32)" fill="#557aa6"/>
  </g>
</svg>
